<?xml version="1.0" encoding="UTF-8"?>
<svg xmlns="http://www.w3.org/2000/svg" xmlns:xlink="http://www.w3.org/1999/xlink" width="640pt" height="640pt" viewBox="0 0 640 640" version="1.1">
<g id="surface1">
<path style=" stroke:none;fill-rule:nonzero;fill:#323232;fill-opacity:1;" d="M 155 65.75 C 145.75 68.25 139.625 71.875 124.625 83.625 C 106.125 98.125 91 112 83.875 121 C 66.25 143 60.875 170.875 68.75 198.625 C 76.75 226.75 109.25 290.375 136.125 330.625 C 176.125 390.25 226.125 443.125 281.875 484.375 C 323.375 515.25 373.125 543.625 422 564.25 C 443.25 573.25 452.375 575.375 468.75 575.5 C 484.125 575.5 492 573.5 506.875 565.875 C 519.125 559.5 536.5 542.875 554 520.625 C 568.125 502.625 570.375 499 573 490.125 C 578.125 472.5 572 451.875 557.5 438.25 C 546.25 427.75 445.125 371.375 429.5 366.875 C 419.5 364 405.125 364.75 397.75 368.625 C 386.75 374.25 378.25 385.875 374.5 400.5 C 371.25 412.875 367.875 416.25 358.75 416.25 C 352 416.25 347 413.375 331.875 400.625 C 299.125 373.25 268.125 342.5 242.375 312 C 226 292.625 223.75 288.875 223.75 281.375 C 223.75 273.625 228.375 269.375 240 266.125 C 257.75 261.375 270.375 250.75 274.375 237.25 C 279.25 220.5 275.625 209 254 173.625 C 249.125 165.625 237.75 144.875 228.625 127.375 C 219.625 109.875 210.5 93.125 208.375 90 C 199.75 77 189.25 68.875 176.875 65.625 C 167.875 63.375 164 63.375 155 65.75 Z M 175.875 88 C 185.25 92.375 190.125 99.5 210.125 137.875 C 219.75 156.375 230.75 176.625 234.625 182.875 C 253 213 256.125 220.375 254.5 229.375 C 253.125 236.375 246.5 242 235.875 245.125 C 222 249.125 219.75 250.125 214 255.5 C 206.25 262.625 203.5 268.75 202.75 280 C 202 293 204.875 300 217.125 315 C 246.25 351.125 288.875 393.5 323.75 421.5 C 341.375 435.5 344.375 436.875 358.75 436.875 C 368.625 436.875 371.5 436.375 375.75 434.125 C 383.5 430 390.5 421.25 393 412.875 C 399.375 391.375 403.75 386.25 415.625 386.25 C 424 386.375 430.5 389.125 462.5 406.75 C 541.75 450.375 547.375 454.25 551.75 466.875 C 556 479.625 554.125 485.75 539.5 504.625 C 522.25 527 506.5 542.375 494.875 548 C 469.625 560.5 452.625 556.875 391.25 526.25 C 269.25 465.625 176.875 373.875 115 251.75 C 94.875 211.875 86.25 188.875 86.25 174.375 C 86.25 150.875 96.125 135 126.25 109.75 C 148 91.5 158.125 85.375 166.875 85.125 C 168.25 85 172.25 86.375 175.875 88 Z M 175.875 88 "/>
</g>
</svg>
