<?xml version="1.0" encoding="UTF-8"?>
<svg xmlns="http://www.w3.org/2000/svg" xmlns:xlink="http://www.w3.org/1999/xlink" width="2000pt" height="2000pt" viewBox="0 0 2000 2000" version="1.1">
<g id="surface1">
<path style=" stroke:none;fill-rule:nonzero;fill:#323232;fill-opacity:1;" d="M 1621 250 C 1607.625 251.5 1589.25 256.375 1572.5 262.875 C 1547.625 272.5 1449 313.875 905.625 542.75 C 678.75 638.375 428.5 743.75 349.375 777.125 C 270.375 810.375 202 839.625 197.625 842 C 166.375 859.125 147.375 877.375 135.625 901.625 C 119.625 934.625 121.625 970.375 141.5 1003.875 C 148.25 1015.25 164.75 1032.75 178.625 1043.125 C 201.25 1060.125 204.125 1061.25 373.375 1118.25 L 528.5 1170.5 L 546.875 1230.5 C 595.5 1389.5 641.5 1538.125 645.5 1549.625 C 658.25 1586.125 674 1612.25 691.625 1626.375 C 714 1644.25 750.25 1649.875 780 1640.125 C 802.5 1632.75 801.75 1633.375 900.625 1543.375 C 952.875 1495.75 992.375 1460.625 993.125 1461.125 C 1277.5 1679.25 1294.5 1692.125 1303.75 1695.875 C 1340.375 1710.875 1381.375 1713 1418.5 1701.75 C 1431.375 1697.875 1449.5 1688.75 1459.5 1681 C 1477.5 1667.125 1496.375 1643.375 1506.125 1622.375 C 1510.75 1612.25 1514.5 1593.625 1629.25 1005.625 C 1694.25 672.125 1748.125 394.25 1748.875 388.125 C 1750.875 372.375 1749.5 349.625 1745.75 334.875 C 1740.75 315.25 1730 296.125 1715.75 281.875 C 1706 272.125 1699 267.375 1684.5 260.5 C 1665.375 251.5 1642.5 247.625 1621 250 Z M 1622 384.75 C 1621.375 390 1392.5 1562.75 1390.5 1571.25 C 1390.125 1572.875 1387.375 1576.625 1384.5 1579.625 C 1379.875 1584.125 1378.25 1585 1374.25 1585 C 1360.375 1584.875 1366 1588.875 1170.375 1438.75 C 1069.625 1361.375 986.375 1298 985.5 1297.75 C 984.625 1297.5 934.25 1342.625 873.5 1397.875 C 812.75 1453.25 763 1498.375 762.75 1498.25 C 762.25 1497.75 808.625 1202.375 809.5 1201 C 809.875 1200.375 942.5 1076.625 1104.125 926 C 1265.875 775.375 1403.875 646.5 1411 639.5 C 1418.125 632.625 1425.375 624.5 1427 621.625 C 1429.875 617 1430.125 615.5 1429.25 609.125 C 1428.625 603.625 1427.625 601.125 1424.75 598.25 C 1421.375 594.875 1420.625 594.75 1413.375 595.25 C 1409.125 595.625 1402.25 597.25 1398.125 599 C 1394 600.625 1219.75 707.75 1011 837.125 L 631.25 1072.375 L 448.75 1010.875 C 348.375 977.125 266.75 949 267.25 948.625 C 267.75 948.125 477.375 859.5 733.125 751.875 C 988.875 644.125 1244.875 536.25 1301.875 512.25 C 1359 488.25 1451.75 449.25 1508.125 425.625 C 1564.5 402 1612.625 381.875 1615 380.875 C 1622.375 377.625 1622.875 378 1622 384.75 Z M 1622 384.75 "/>
</g>
</svg>
